<svg width="1626" height="266" viewBox="0 0 1626 266" fill="none" xmlns="http://www.w3.org/2000/svg">
<path d="M1323.69 126.069V113.327H1289.04H1280.65H1275.2V197.742H1289.04V162.731H1320.43V149.989H1289.04V126.069H1323.69Z" fill="black"/>
<path d="M1456.55 161.036V197.741H1469.62V157.656C1469.62 148.348 1464.91 131.209 1444.97 131.209C1429.39 131.209 1423.4 140.856 1423.4 140.856L1422.41 132.424H1410.81V197.741H1424.06V164.47C1424.06 149.923 1431.58 143.066 1441.7 143.066C1453.73 143.066 1456.55 152.865 1456.55 161.036Z" fill="black"/>
<path d="M1599.29 192.12L1626 132.303H1612.37L1592.94 178.065L1572.24 132.303H1557.88L1585.99 192.83C1585.38 194.296 1581.63 203.068 1578.87 205.89C1576.46 208.285 1573.14 209.239 1569.16 209.239L1571.09 220.557C1574 220.649 1576.9 220.142 1579.61 219.066C1582.32 217.99 1584.78 216.368 1586.84 214.3C1592.97 208.066 1598.03 194.941 1598.03 194.941L1599.12 192.524H1599.48L1599.29 192.12Z" fill="black"/>
<path d="M1366.9 131.341H1363.38C1354.77 131.341 1346.5 134.777 1340.41 140.894C1334.31 147.01 1330.89 155.306 1330.89 163.956V166.439C1330.89 175.087 1334.32 183.38 1340.41 189.494C1346.5 195.609 1354.77 199.043 1363.38 199.043H1366.9C1375.52 199.043 1383.78 195.609 1389.88 189.494C1395.97 183.38 1399.39 175.087 1399.4 166.439V163.956C1399.4 155.306 1395.97 147.01 1389.88 140.894C1383.79 134.777 1375.52 131.341 1366.9 131.341ZM1386.22 166.012C1386.22 171.524 1384.04 176.81 1380.16 180.707C1376.28 184.604 1371.01 186.793 1365.52 186.793H1364.84C1359.35 186.793 1354.09 184.604 1350.2 180.707C1346.32 176.81 1344.14 171.524 1344.14 166.012V164.372C1344.14 158.86 1346.32 153.575 1350.2 149.678C1354.09 145.78 1359.35 143.591 1364.84 143.591H1365.45C1370.94 143.591 1376.21 145.78 1380.09 149.678C1383.98 153.575 1386.16 158.86 1386.16 164.372L1386.22 166.012Z" fill="black"/>
<path d="M1535.68 109.138V138.461C1529.93 133.846 1522.79 131.335 1515.43 131.341H1513.48C1504.87 131.344 1496.6 134.781 1490.51 140.897C1484.42 147.013 1480.99 155.307 1480.99 163.956V166.439C1480.99 175.087 1484.42 183.38 1490.51 189.494C1496.6 195.608 1504.87 199.043 1513.48 199.043H1515.43C1523.61 199.055 1531.49 195.96 1537.49 190.38L1538.56 197.61H1549.02V109.138H1535.68ZM1536.33 166.012C1536.33 171.524 1534.15 176.809 1530.27 180.706C1526.39 184.604 1521.12 186.793 1515.63 186.793H1514.95C1509.46 186.793 1504.2 184.604 1500.32 180.706C1496.43 176.809 1494.25 171.524 1494.25 166.012V164.371C1494.25 158.86 1496.43 153.574 1500.32 149.677C1504.2 145.78 1509.46 143.59 1514.95 143.59H1515.63C1521.12 143.59 1526.39 145.78 1530.27 149.677C1534.15 153.574 1536.33 158.86 1536.33 164.371V166.012Z" fill="black"/>
<path d="M1186.61 196.919V183.029C1186.61 182.262 1186.41 181.508 1186.03 180.844C1185.65 180.18 1185.1 179.628 1184.44 179.245L1172.45 172.3C1171.79 171.916 1171.04 171.713 1170.27 171.713C1169.51 171.713 1168.75 171.916 1168.09 172.3L1156.11 179.245C1155.44 179.628 1154.89 180.18 1154.51 180.844C1154.13 181.508 1153.93 182.262 1153.93 183.029V196.919C1153.92 197.689 1154.13 198.444 1154.51 199.111C1154.89 199.777 1155.44 200.33 1156.11 200.715L1168.09 207.66C1168.75 208.044 1169.51 208.246 1170.27 208.246C1171.04 208.246 1171.79 208.044 1172.45 207.66L1184.44 200.715C1185.1 200.33 1185.65 199.777 1186.03 199.111C1186.42 198.444 1186.62 197.689 1186.61 196.919Z" fill="#08A835"/>
<path d="M1225.76 196.919V183.029C1225.76 182.262 1225.56 181.508 1225.18 180.844C1224.79 180.18 1224.24 179.628 1223.58 179.245L1211.6 172.3C1210.93 171.916 1210.18 171.713 1209.42 171.713C1208.65 171.713 1207.9 171.916 1207.24 172.3L1195.25 179.245C1194.59 179.628 1194.04 180.18 1193.66 180.844C1193.27 181.508 1193.07 182.262 1193.07 183.029V196.919C1193.07 197.689 1193.27 198.444 1193.65 199.111C1194.04 199.777 1194.59 200.33 1195.25 200.715L1207.24 207.66C1207.9 208.044 1208.65 208.246 1209.42 208.246C1210.18 208.246 1210.93 208.044 1211.6 207.66L1223.58 200.715C1224.25 200.33 1224.8 199.777 1225.18 199.111C1225.56 198.444 1225.76 197.689 1225.76 196.919Z" fill="#08A835"/>
<path d="M1167.09 162.871V148.981C1167.09 148.21 1166.89 147.452 1166.51 146.783C1166.12 146.115 1165.57 145.56 1164.91 145.174L1152.92 138.251C1152.26 137.867 1151.51 137.665 1150.74 137.665C1149.98 137.665 1149.23 137.867 1148.56 138.251L1136.58 145.174C1135.92 145.558 1135.37 146.11 1134.98 146.774C1134.6 147.438 1134.4 148.191 1134.4 148.959V162.849C1134.4 163.618 1134.6 164.374 1134.98 165.04C1135.36 165.707 1135.91 166.26 1136.58 166.644L1148.56 173.611C1149.23 173.995 1149.98 174.198 1150.74 174.198C1151.51 174.198 1152.26 173.995 1152.92 173.611L1164.91 166.666C1165.57 166.282 1166.12 165.728 1166.5 165.062C1166.89 164.396 1167.09 163.64 1167.09 162.871Z" fill="#08A835"/>
<path d="M1206.19 162.871V148.981C1206.19 148.213 1205.99 147.46 1205.61 146.796C1205.23 146.131 1204.68 145.58 1204.01 145.196L1192.03 138.251C1191.36 137.867 1190.61 137.665 1189.85 137.665C1189.08 137.665 1188.33 137.867 1187.67 138.251L1175.68 145.174C1175.02 145.558 1174.47 146.11 1174.09 146.774C1173.71 147.438 1173.5 148.191 1173.5 148.959V162.849C1173.5 163.618 1173.7 164.374 1174.09 165.04C1174.47 165.707 1175.02 166.26 1175.68 166.644L1187.67 173.59C1188.33 173.974 1189.08 174.176 1189.85 174.176C1190.61 174.176 1191.36 173.974 1192.03 173.59L1204.01 166.644C1204.67 166.262 1205.22 165.712 1205.6 165.05C1205.99 164.388 1206.19 163.636 1206.19 162.871Z" fill="#08A835"/>
<path d="M1147.47 196.919V183.029C1147.47 182.262 1147.27 181.508 1146.89 180.844C1146.5 180.18 1145.95 179.628 1145.29 179.245L1133.31 172.3C1132.64 171.916 1131.89 171.713 1131.13 171.713C1130.36 171.713 1129.61 171.916 1128.95 172.3L1116.96 179.245C1116.3 179.628 1115.75 180.18 1115.37 180.844C1114.99 181.508 1114.78 182.262 1114.78 183.029V196.919C1114.78 197.689 1114.98 198.444 1115.36 199.111C1115.75 199.777 1116.3 200.33 1116.96 200.715L1128.95 207.66C1129.61 208.044 1130.36 208.246 1131.13 208.246C1131.89 208.246 1132.64 208.044 1133.31 207.66L1145.29 200.715C1145.96 200.33 1146.51 199.777 1146.89 199.111C1147.27 198.444 1147.47 197.689 1147.47 196.919V196.919Z" fill="#08A835"/>
<path d="M1186.61 128.823V114.933C1186.61 114.165 1186.41 113.412 1186.03 112.748C1185.65 112.083 1185.1 111.532 1184.44 111.148L1172.45 104.203C1171.79 103.819 1171.04 103.617 1170.27 103.617C1169.51 103.617 1168.75 103.819 1168.09 104.203L1156.11 111.148C1155.44 111.532 1154.89 112.083 1154.51 112.748C1154.13 113.412 1153.93 114.165 1153.93 114.933V128.823C1153.92 129.592 1154.13 130.348 1154.51 131.014C1154.89 131.68 1155.44 132.234 1156.11 132.618L1168.09 139.564C1168.75 139.948 1169.51 140.15 1170.27 140.15C1171.04 140.15 1171.79 139.948 1172.45 139.564L1184.44 132.618C1185.1 132.234 1185.65 131.68 1186.03 131.014C1186.42 130.348 1186.62 129.592 1186.61 128.823Z" fill="black"/>
<path d="M1113.75 67.0938H1118.03V57.1046H1123.86C1130.45 57.1046 1133.71 53.1228 1133.71 47.8785C1133.71 42.648 1130.48 38.6801 1123.87 38.6801H1113.75V67.0938ZM1118.03 53.4696V42.3567H1123.42C1127.66 42.3567 1129.4 44.6597 1129.4 47.8785C1129.4 51.0972 1127.66 53.4696 1123.47 53.4696H1118.03ZM1138.4 67.0938H1142.55V54.0801C1142.55 51.2914 1144.7 49.2797 1147.64 49.2797C1148.5 49.2797 1149.48 49.4323 1149.81 49.5295V45.5615C1149.39 45.506 1148.57 45.4644 1148.05 45.4644C1145.55 45.4644 1143.41 46.8796 1142.64 49.1687H1142.41V45.7835H1138.4V67.0938ZM1161.61 67.5238C1167.62 67.5238 1171.55 63.1258 1171.55 56.5358C1171.55 49.9041 1167.62 45.506 1161.61 45.506C1155.6 45.506 1151.68 49.9041 1151.68 56.5358C1151.68 63.1258 1155.6 67.5238 1161.61 67.5238ZM1161.63 64.0415C1157.7 64.0415 1155.87 60.6147 1155.87 56.5219C1155.87 52.443 1157.7 48.9745 1161.63 48.9745C1165.52 48.9745 1167.36 52.443 1167.36 56.5219C1167.36 60.6147 1165.52 64.0415 1161.63 64.0415ZM1185.15 67.5238C1190.19 67.5238 1193.45 64.4993 1193.91 60.3511H1189.87C1189.34 62.6541 1187.55 64.0138 1185.18 64.0138C1181.67 64.0138 1179.41 61.0864 1179.41 56.4386C1179.41 51.8741 1181.71 49.0023 1185.18 49.0023C1187.82 49.0023 1189.43 50.6671 1189.87 52.6649H1193.91C1193.46 48.3641 1189.95 45.506 1185.11 45.506C1179.1 45.506 1175.22 50.0289 1175.22 56.5358C1175.22 62.9593 1178.96 67.5238 1185.15 67.5238ZM1207.53 67.5238C1212.17 67.5238 1215.46 65.2347 1216.41 61.7662L1212.48 61.0586C1211.73 63.0703 1209.93 64.097 1207.57 64.097C1204.02 64.097 1201.63 61.7939 1201.52 57.6873H1216.67V56.2167C1216.67 48.5167 1212.06 45.506 1207.24 45.506C1201.3 45.506 1197.39 50.0289 1197.39 56.5774C1197.39 63.1952 1201.24 67.5238 1207.53 67.5238ZM1201.53 54.5795C1201.7 51.555 1203.89 48.9329 1207.26 48.9329C1210.48 48.9329 1212.59 51.3192 1212.61 54.5795H1201.53ZM1237.24 50.9862C1236.38 47.6704 1233.79 45.506 1229.18 45.506C1224.37 45.506 1220.95 48.045 1220.95 51.8186C1220.95 54.8431 1222.79 56.8549 1226.78 57.7428L1230.39 58.5336C1232.44 58.9914 1233.4 59.9071 1233.4 61.239C1233.4 62.89 1231.64 64.1802 1228.92 64.1802C1226.43 64.1802 1224.84 63.112 1224.34 61.017L1220.33 61.6275C1221.02 65.4011 1224.16 67.5238 1228.94 67.5238C1234.09 67.5238 1237.66 64.7907 1237.66 60.9338C1237.66 57.9231 1235.74 56.064 1231.83 55.1622L1228.45 54.3853C1226.1 53.8304 1225.09 53.0395 1225.1 51.5967C1225.09 49.9595 1226.86 48.7941 1229.22 48.7941C1231.8 48.7941 1233 50.2232 1233.48 51.6522L1237.24 50.9862ZM1258.19 50.9862C1257.33 47.6704 1254.73 45.506 1250.13 45.506C1245.31 45.506 1241.9 48.045 1241.9 51.8186C1241.9 54.8431 1243.73 56.8549 1247.73 57.7428L1251.33 58.5336C1253.39 58.9914 1254.34 59.9071 1254.34 61.239C1254.34 62.89 1252.58 64.1802 1249.86 64.1802C1247.38 64.1802 1245.78 63.112 1245.28 61.017L1241.28 61.6275C1241.97 65.4011 1245.1 67.5238 1249.89 67.5238C1255.04 67.5238 1258.6 64.7907 1258.6 60.9338C1258.6 57.9231 1256.69 56.064 1252.78 55.1622L1249.39 54.3853C1247.05 53.8304 1246.03 53.0395 1246.05 51.5967C1246.03 49.9595 1247.81 48.7941 1250.17 48.7941C1252.75 48.7941 1253.94 50.2232 1254.43 51.6522L1258.19 50.9862ZM1272.35 67.5238C1277 67.5238 1280.29 65.2347 1281.23 61.7662L1277.3 61.0586C1276.55 63.0703 1274.75 64.097 1272.39 64.097C1268.84 64.097 1266.45 61.7939 1266.34 57.6873H1281.49V56.2167C1281.49 48.5167 1276.89 45.506 1272.06 45.506C1266.12 45.506 1262.21 50.0289 1262.21 56.5774C1262.21 63.1952 1266.06 67.5238 1272.35 67.5238ZM1266.36 54.5795C1266.52 51.555 1268.71 48.9329 1272.09 48.9329C1275.3 48.9329 1277.41 51.3192 1277.43 54.5795H1266.36ZM1294.07 67.51C1297.96 67.51 1299.48 65.1375 1300.23 63.7779H1300.58V67.0938H1304.63V38.6801H1300.48V49.2381H1300.23C1299.48 47.9201 1298.07 45.506 1294.1 45.506C1288.95 45.506 1285.17 49.5711 1285.17 56.4803C1285.17 63.3756 1288.9 67.51 1294.07 67.51ZM1294.99 63.9721C1291.28 63.9721 1289.36 60.7118 1289.36 56.4386C1289.36 52.2071 1291.24 49.03 1294.99 49.03C1298.61 49.03 1300.55 51.9851 1300.55 56.4386C1300.55 60.9199 1298.57 63.9721 1294.99 63.9721ZM1321.22 67.0938H1325.27V63.7779H1325.62C1326.37 65.1375 1327.9 67.51 1331.78 67.51C1336.94 67.51 1340.69 63.3756 1340.69 56.4803C1340.69 49.5711 1336.89 45.506 1331.74 45.506C1327.79 45.506 1326.36 47.9201 1325.62 49.2381H1325.37V38.6801H1321.22V67.0938ZM1325.29 56.4386C1325.29 51.9851 1327.23 49.03 1330.85 49.03C1334.61 49.03 1336.5 52.2071 1336.5 56.4386C1336.5 60.7118 1334.56 63.9721 1330.85 63.9721C1327.29 63.9721 1325.29 60.9199 1325.29 56.4386ZM1347.21 75.0296C1350.63 75.0296 1352.81 73.2399 1354.03 69.9379L1362.84 45.8251L1358.36 45.7835L1352.96 62.3211H1352.74L1347.34 45.7835H1342.9L1350.7 67.3712L1350.19 68.7864C1349.13 71.5473 1347.65 71.797 1345.37 71.1727L1344.38 74.5718C1344.87 74.8076 1345.96 75.0296 1347.21 75.0296Z" fill="#3D3D3D" fill-opacity="0.8"/>
<rect x="2.98462" y="2.07812" width="1014.13" height="261.844" rx="40.3126" stroke="#CDCDCD" stroke-width="4.15625"/>
<path fill-rule="evenodd" clip-rule="evenodd" d="M220.507 102.894C226.498 102.894 231.343 104.232 234.398 105.445L232.292 118.386L230.891 117.749C228.089 116.538 224.389 115.327 219.354 115.455C213.24 115.455 210.498 118.067 210.434 120.618C210.434 123.423 213.751 125.272 219.168 128.014C228.091 132.286 232.23 137.513 232.168 144.335C232.043 156.767 221.463 164.801 205.213 164.801C198.265 164.736 191.573 163.267 187.94 161.611L190.107 148.159L192.147 149.116C197.182 151.35 200.495 152.304 206.678 152.304C211.137 152.304 215.918 150.453 215.979 146.439C215.979 143.825 213.942 141.911 207.95 138.978C202.088 136.108 194.25 131.327 194.377 122.72C194.443 111.054 205.213 102.894 220.507 102.894ZM162.77 163.907H178.257L187.943 103.979H172.457L162.77 163.907ZM254.983 142.677C256.259 139.234 261.167 125.91 261.167 125.91C261.141 125.961 261.343 125.4 261.644 124.565L261.645 124.563C262.09 123.33 262.749 121.502 263.204 120.172L264.287 125.336C264.287 125.336 267.22 139.681 267.856 142.677H254.983ZM274.101 103.979H262.121C258.427 103.979 255.62 105.062 254.026 108.952L231.022 163.906H247.272C247.272 163.906 249.948 156.51 250.523 154.917H270.407C270.852 157.021 272.255 163.906 272.255 163.906H286.595L274.101 103.979ZM149.828 103.979L134.661 144.844L133.004 136.557L133 136.544L133.006 136.56L127.589 109.018C126.697 105.19 123.957 104.106 120.579 103.98H95.6617L95.4068 105.191C101.483 106.746 106.918 108.986 111.68 111.771L125.484 163.844H141.862L166.205 103.979H149.828Z" fill="#0B589F"/>
<path d="M491.515 95.0875H445.466V170.899H491.515V95.0875Z" fill="#FF5F00"/>
<path d="M450.208 133C450.202 125.7 451.844 118.494 455.009 111.929C458.174 105.363 462.779 99.6083 468.476 95.1012C461.42 89.5117 452.946 86.036 444.024 85.0712C435.101 84.1064 426.088 85.6914 418.017 89.6452C409.945 93.599 403.14 99.762 398.379 107.43C393.618 115.098 391.093 123.961 391.093 133.007C391.093 142.052 393.618 150.916 398.379 158.584C403.14 166.251 409.945 172.414 418.017 176.368C426.088 180.322 435.101 181.907 444.024 180.942C452.946 179.977 461.42 176.502 468.476 170.912C462.777 166.404 458.171 160.647 455.006 154.079C451.841 147.51 450.2 140.302 450.208 133V133Z" fill="#EB001B"/>
<path d="M541.296 162.877V161.323H541.961V161.002H540.38V161.323H541.004V162.877H541.296ZM544.365 162.877V161.002H543.887L543.329 162.341L542.771 161.002H542.293V162.877H542.638V161.457L543.156 162.676H543.515L544.033 161.457V162.877H544.365Z" fill="#F79E1B"/>
<path d="M545.868 133C545.868 142.046 543.342 150.91 538.58 158.578C533.819 166.246 527.012 172.409 518.94 176.362C510.867 180.315 501.854 181.899 492.931 180.933C484.007 179.967 475.533 176.49 468.478 170.898C474.173 166.387 478.777 160.632 481.942 154.065C485.108 147.499 486.753 140.294 486.753 132.993C486.753 125.692 485.108 118.487 481.942 111.921C478.777 105.354 474.173 99.5986 468.478 95.0875C475.533 89.4963 484.007 86.0188 492.931 85.0526C501.854 84.0865 510.867 85.6705 518.94 89.6237C527.012 93.577 533.819 99.7398 538.58 107.408C543.342 115.076 545.868 123.94 545.868 132.986V133Z" fill="#F79E1B"/>
<path d="M854.926 118.458V157.281H845.503V118.414H835.067V110.168H865.441V118.458H854.926Z" fill="#3E538A"/>
<path d="M688.118 110.142V157.309H678.686V118.423H659.839V157.309H650.376V110.142H688.118Z" fill="#3E538A"/>
<path d="M711.203 110.142C716.507 110.142 720.184 110.707 723.647 113.748C727.466 117.142 728.456 121.739 728.456 125.134C728.456 126.968 728.173 132.062 724.567 135.67C721.947 138.29 718.06 139.842 712.616 139.842H706.905V157.309H697.484V110.142H711.203ZM706.905 131.922H710.425C712.192 131.922 714.455 131.922 716.436 130.437C718.139 129.093 718.981 126.97 718.981 124.92C718.981 122.3 717.708 120.536 716.361 119.55C714.452 118.206 712.048 118.065 709.856 118.065H706.905V131.922Z" fill="#3E538A"/>
<path d="M825.637 155.611C822.81 157.095 819.061 158.37 813.97 158.37C805.695 158.37 800.675 155.541 796.715 151.792C791.27 146.553 789.149 140.691 789.149 133.758C789.149 125.203 792.686 119.052 796.715 115.304C801.453 110.85 807.326 109.08 814.039 109.08C817.364 109.08 821.325 109.646 825.637 111.979V122.729C821.325 117.778 815.944 117.425 814.253 117.425C804.775 117.425 798.624 125.203 798.624 133.901C798.624 144.366 806.686 150.025 814.605 150.025C818.991 150.025 822.879 148.115 825.636 144.863L825.637 155.611Z" fill="#3E538A"/>
<path d="M884.29 110.142V157.309H874.868V110.142H884.29Z" fill="#3E538A"/>
<path d="M907.436 110.142C912.74 110.142 916.417 110.707 919.881 113.748C923.699 117.142 924.69 121.739 924.69 125.134C924.69 126.968 924.407 132.062 920.801 135.67C918.181 138.29 914.295 139.842 908.85 139.842H903.137V157.309H893.717V110.142H907.436ZM903.139 131.922H906.658C908.427 131.922 910.689 131.922 912.67 130.437C914.373 129.093 915.215 126.97 915.215 124.92C915.215 122.3 913.943 120.536 912.595 119.55C910.685 118.206 908.283 118.065 906.089 118.065H903.135L903.139 131.922Z" fill="#3E538A"/>
<path d="M754.065 133.785C754.065 133.765 754.065 133.745 754.065 133.726C754.064 132.784 754.343 131.862 754.865 131.078C755.388 130.294 756.131 129.683 757 129.32C757.87 128.958 758.828 128.862 759.752 129.043C760.677 129.224 761.527 129.675 762.195 130.339C762.864 131.003 763.321 131.85 763.508 132.773C763.696 133.697 763.606 134.655 763.25 135.527C762.893 136.399 762.287 137.146 761.506 137.674C760.726 138.202 759.807 138.487 758.864 138.493V144.931C761.08 144.925 763.243 144.263 765.082 143.028C766.921 141.793 768.353 140.04 769.197 137.992C770.04 135.944 770.258 133.691 769.822 131.519C769.386 129.347 768.316 127.353 766.747 125.789C765.179 124.225 763.182 123.161 761.009 122.731C758.836 122.301 756.584 122.525 754.538 123.374C752.492 124.224 750.744 125.66 749.514 127.503C748.284 129.345 747.627 131.511 747.628 133.726C747.628 133.745 747.628 133.765 747.628 133.785H754.065Z" fill="#F4C645"/>
<path d="M775.345 125.624C777.085 129.175 777.637 133.192 776.917 137.081C776.198 140.97 774.246 144.524 771.351 147.217C768.455 149.911 764.769 151.601 760.839 152.038C756.908 152.475 752.941 151.635 749.525 149.643C746.109 147.65 743.424 144.612 741.869 140.976C740.313 137.34 739.969 133.3 740.887 129.453C741.806 125.606 743.937 122.157 746.968 119.616C749.998 117.075 753.765 115.576 757.713 115.342L762.306 108.309C761.145 108.147 759.975 108.065 758.803 108.063C744.63 108.063 733.141 119.552 733.141 133.726C733.141 147.899 744.63 159.386 758.803 159.386C772.977 159.386 784.465 147.897 784.465 133.726C784.471 128.411 782.819 123.227 779.74 118.896L775.345 125.624Z" fill="#3E538A"/>
</svg>
