<svg id="Слой_1" data-name="Слой 1" xmlns="http://www.w3.org/2000/svg" viewBox="0 0 256 256"><defs><style>.cls-1{fill:#00796b;}.cls-2{fill:#fff;}.cls-3{fill:#ffc107;}</style></defs><title>Монтажная область 1 копия</title><path class="cls-1" d="M228.69,48a20.68,20.68,0,0,1-17.82-31.23H38.38A21.65,21.65,0,0,0,16.73,38.42V217.35A21.65,21.65,0,0,0,38.38,239H217.31A21.65,21.65,0,0,0,239,217.35V45.26A20.59,20.59,0,0,1,228.69,48Z"/><path class="cls-2" d="M115.32,101v56.82H102.06v-7.23a19.17,19.17,0,0,1-7.38,5.9,25.66,25.66,0,0,1-10.32,2.08q-11.39,0-17.93-6.33t-6.54-18.78V101h13.3v30.64q0,7.66,3.46,11.44t9.84,3.78q7.13,0,11.33-4.42t4.2-12.72V101Z"/><path class="cls-2" d="M170.48,106.41q6.65,6,6.65,18.14v33.3H164.58v-6.92a15.47,15.47,0,0,1-7,5.69,27.25,27.25,0,0,1-10.91,2,26.73,26.73,0,0,1-11.17-2.18,17.24,17.24,0,0,1-7.39-6.06,15.38,15.38,0,0,1-2.61-8.78,15,15,0,0,1,5.69-12.29q5.69-4.63,17.93-4.63h14.68v-.85q0-6-3.56-9.15t-10.59-3.19a30.55,30.55,0,0,0-9.42,1.49,23.16,23.16,0,0,0-7.82,4.15l-5.21-9.68A32.3,32.3,0,0,1,138,102.21a47.83,47.83,0,0,1,13.3-1.81Q163.83,100.4,170.48,106.41Zm-12.13,40.22a12.45,12.45,0,0,0,5.48-6.54v-6.6H150.11q-11.49,0-11.49,7.55a6.78,6.78,0,0,0,2.87,5.75q2.87,2.13,8,2.13A17.18,17.18,0,0,0,158.35,146.63Z"/><path class="cls-3" d="M190,54.82H117.33a15.27,15.27,0,0,0-15.25,15.25L102,95.28h13.32l.21-25.21a1.8,1.8,0,0,1,1.77-1.77H190V187.47H117.33a1.8,1.8,0,0,1-1.77-1.77l-.21-22.17H102.06l0,22.17a15.27,15.27,0,0,0,15.25,15.25H190a13.48,13.48,0,0,0,13.48-13.48V68.3A13.48,13.48,0,0,0,190,54.82Z"/><path class="cls-2" d="M115.32,101v56.82H102.06v-7.23a19.17,19.17,0,0,1-7.38,5.9,25.66,25.66,0,0,1-10.32,2.08q-11.39,0-17.93-6.33t-6.54-18.78V101h13.3v30.64q0,7.66,3.46,11.44t9.84,3.78q7.13,0,11.33-4.42t4.2-12.72V101Z"/><path class="cls-2" d="M170.48,106.41q6.65,6,6.65,18.14v33.3H164.58v-6.92a15.47,15.47,0,0,1-7,5.69,27.25,27.25,0,0,1-10.91,2,26.73,26.73,0,0,1-11.17-2.18,17.24,17.24,0,0,1-7.39-6.06,15.38,15.38,0,0,1-2.61-8.78,15,15,0,0,1,5.69-12.29q5.69-4.63,17.93-4.63h14.68v-.85q0-6-3.56-9.15t-10.59-3.19a30.55,30.55,0,0,0-9.42,1.49,23.16,23.16,0,0,0-7.82,4.15l-5.21-9.68A32.3,32.3,0,0,1,138,102.21a47.83,47.83,0,0,1,13.3-1.81Q163.83,100.4,170.48,106.41Zm-12.13,40.22a12.45,12.45,0,0,0,5.48-6.54v-6.6H150.11q-11.49,0-11.49,7.55a6.78,6.78,0,0,0,2.87,5.75q2.87,2.13,8,2.13A17.18,17.18,0,0,0,158.35,146.63Z"/><path class="cls-3" d="M190,54.82H117.33a15.27,15.27,0,0,0-15.25,15.25L102,95.28h13.32l.21-25.21a1.8,1.8,0,0,1,1.77-1.77H190V187.47H117.33a1.8,1.8,0,0,1-1.77-1.77l-.21-22.17H102.06l0,22.17a15.27,15.27,0,0,0,15.25,15.25H190a13.48,13.48,0,0,0,13.48-13.48V68.3A13.48,13.48,0,0,0,190,54.82Z"/><circle class="cls-3" cx="228.69" cy="27.29" r="15.69"/></svg>