<svg id="Слой_1" data-name="Слой 1" xmlns="http://www.w3.org/2000/svg" viewBox="0 0 454 256"><defs><style>.cls-1{fill:#fff;}.cls-2{fill:#ffc107;}</style></defs><title>Монтажная область 4 копия 2</title><path class="cls-1" d="M236.38,96.91h15.55v14.63h-15.1v49.51H219.25V111.54H209.9V96.91h9.35V94q0-11.22,6.15-17.81t17.29-6.58a30,30,0,0,1,7.5.91,17.41,17.41,0,0,1,5.91,2.63l-4.62,13.77a11.41,11.41,0,0,0-7.1-2.31q-8,0-8,9.51Zm33.36-1.46h17.58v65.6H269.74Z"/><path class="cls-1" d="M358.71,101.79q6.93,7.32,6.93,21.7v37.56H348.06V126.42q0-7.8-3.15-11.65t-9.13-3.84a13.47,13.47,0,0,0-10.6,4.45q-3.94,4.45-3.94,13.23v32.44H303.66V95.45h16.79v7.68a23.32,23.32,0,0,1,8.68-6.4,28.26,28.26,0,0,1,11.38-2.26Q351.78,94.47,358.71,101.79Z"/><path class="cls-1" d="M441.26,133.61H395.39a15.61,15.61,0,0,0,5.86,9.64,18.4,18.4,0,0,0,11.5,3.53,21.8,21.8,0,0,0,8.39-1.52,20.24,20.24,0,0,0,6.82-4.82l9.36,11Q428.74,162,412.3,162a37.07,37.07,0,0,1-18.15-4.33,30.32,30.32,0,0,1-12.17-12,35.23,35.23,0,0,1-4.28-17.43,35.68,35.68,0,0,1,4.23-17.38,30.77,30.77,0,0,1,11.6-12.07,33.51,33.51,0,0,1,32.63-.18,29.07,29.07,0,0,1,11.32,11.89,37.65,37.65,0,0,1,4.12,18C441.6,128.74,441.49,130.44,441.26,133.61Zm-41.13-21.09a15.94,15.94,0,0,0-5,10H425a16.09,16.09,0,0,0-5-9.94,14.12,14.12,0,0,0-9.91-3.72A14.4,14.4,0,0,0,400.13,112.52Z"/><path class="cls-1" d="M82.37,89.52V162H65.46v-9.23c-2.71,3.25-5.34,5.76-9.42,7.53A32.81,32.81,0,0,1,42.88,163Q28.36,163,20,154.87t-8.35-24V89.52h17v39.09q0,9.76,4.41,14.59T45.6,148q9.07,0,14.45-5.64t5.36-16.22V89.52Z"/><path class="cls-1" d="M152.75,96.37q8.48,7.68,8.48,23.14V162h-16v-8.83a19.77,19.77,0,0,1-8.89,7.26A34.69,34.69,0,0,1,122.41,163a34.05,34.05,0,0,1-14.25-2.79,22,22,0,0,1-9.43-7.73,19.64,19.64,0,0,1-3.33-11.2,19.21,19.21,0,0,1,7.27-15.68q7.26-5.89,22.87-5.9h18.73v-1.09q0-7.59-4.55-11.67t-13.5-4.07a38.92,38.92,0,0,0-12,1.9,29.58,29.58,0,0,0-10,5.29L97.58,97.66A41.22,41.22,0,0,1,111.29,91a60.85,60.85,0,0,1,17-2.31Q144.27,88.7,152.75,96.37Zm-15.47,51.31a15.92,15.92,0,0,0,7-8.35v-8.42H126.76q-14.66,0-14.66,9.64a8.65,8.65,0,0,0,3.66,7.33q3.67,2.72,10.18,2.71A22,22,0,0,0,137.28,147.68Z"/><path class="cls-2" d="M177.69,30.56H84.94A19.48,19.48,0,0,0,65.49,50l-.08,32.15h17L82.68,50a2.29,2.29,0,0,1,2.26-2.26h92.75v152H84.94a2.3,2.3,0,0,1-2.26-2.27l-.27-28.27H65.47l0,28.27A19.48,19.48,0,0,0,84.94,217h92.75a17.19,17.19,0,0,0,17.19-17.19v-152A17.2,17.2,0,0,0,177.69,30.56Z"/><path class="cls-2" d="M269,84.33a14.29,14.29,0,0,1,0-19.79,14,14,0,0,1,10.32-4,14.27,14.27,0,0,1,10.32,3.83,12.74,12.74,0,0,1,4,9.58,14.08,14.08,0,0,1-4,10.29,15.23,15.23,0,0,1-20.64.08Z"/><path class="cls-1" d="M290.2,74.45l-.07,1c-1.46,7.09-12.15,9.41-19-1.21l.06-1,.06-.83h0c6.57,4.73,12.22,5.09,19,1.22h0Z"/></svg>