<svg id="Слой_1" data-name="Слой 1" xmlns="http://www.w3.org/2000/svg" viewBox="0 0 256 256"><defs><style>.cls-1{fill:#00796b;}.cls-2{fill:#fff;}.cls-3{fill:#ffc107;}</style></defs><title>Монтажная область 6</title><circle class="cls-1" cx="128" cy="128" r="128"/><path class="cls-2" d="M111.65,97v61.14H97.38v-7.79a20.54,20.54,0,0,1-7.94,6.35,27.64,27.64,0,0,1-11.11,2.24q-12.26,0-19.29-6.82t-7-20.2V97H66.31v33q0,8.25,3.72,12.31t10.59,4.06q7.66,0,12.19-4.75t4.52-13.68V97Z"/><path class="cls-2" d="M171,102.78q7.14,6.48,7.15,19.52v35.84H164.65v-7.45a16.53,16.53,0,0,1-7.5,6.13,29.31,29.31,0,0,1-11.73,2.12,28.8,28.8,0,0,1-12-2.35,18.5,18.5,0,0,1-8-6.53,16.53,16.53,0,0,1-2.8-9.44,16.18,16.18,0,0,1,6.12-13.22q6.12-5,19.29-5h15.8v-.92q0-6.41-3.83-9.85t-11.4-3.43a33.14,33.14,0,0,0-10.13,1.6,24.87,24.87,0,0,0-8.41,4.47l-5.61-10.42A34.79,34.79,0,0,1,136,98.26a51.32,51.32,0,0,1,14.31-2Q163.86,96.31,171,102.78ZM158,146.06a13.37,13.37,0,0,0,5.9-7v-7.1H149.08q-12.36,0-12.36,8.13a7.3,7.3,0,0,0,3.09,6.18q3.09,2.29,8.58,2.29A18.47,18.47,0,0,0,158,146.06Z"/><path class="cls-3" d="M192,47.27H113.81A16.43,16.43,0,0,0,97.4,63.68l-.06,27.13h14.33l.23-27.13a1.94,1.94,0,0,1,1.91-1.91H192V190H113.81a1.94,1.94,0,0,1-1.91-1.91l-.22-23.85H97.38l0,23.85a16.43,16.43,0,0,0,16.41,16.41H192a14.5,14.5,0,0,0,14.5-14.5V61.77A14.5,14.5,0,0,0,192,47.27Z"/></svg>