<svg id="Слой_1" data-name="Слой 1" xmlns="http://www.w3.org/2000/svg" viewBox="0 0 256 256"><defs><style>.cls-1{fill:#00796b;}.cls-2{fill:#fff;}.cls-3{fill:#ffc107;}</style></defs><title>Монтажная область 6 копия 3</title><path class="cls-1" d="M222.72,41.91a20.65,20.65,0,0,1-29.07-23.8,128.07,128.07,0,1,0,29.07,23.8Z"/><path class="cls-2" d="M111.65,97v61.13H97.38v-7.78a20.62,20.62,0,0,1-7.95,6.35,27.61,27.61,0,0,1-11.1,2.23q-12.25,0-19.29-6.81t-7-20.21V97H66.31v33q0,8.24,3.72,12.31t10.59,4.07q7.67,0,12.19-4.75t4.52-13.68V97Z"/><path class="cls-2" d="M171,102.78q7.15,6.47,7.16,19.52v35.83H164.65v-7.44a16.65,16.65,0,0,1-7.5,6.13,29.32,29.32,0,0,1-11.73,2.12,28.76,28.76,0,0,1-12-2.35,18.55,18.55,0,0,1-8-6.52,16.55,16.55,0,0,1-2.81-9.44,16.19,16.19,0,0,1,6.13-13.22q6.12-5,19.29-5h15.8v-.92q0-6.41-3.83-9.85t-11.39-3.43a32.87,32.87,0,0,0-10.13,1.6,24.92,24.92,0,0,0-8.41,4.46l-5.61-10.42A34.75,34.75,0,0,1,136,98.26a51.46,51.46,0,0,1,14.31-1.95Q163.85,96.31,171,102.78ZM158,146.06a13.39,13.39,0,0,0,5.9-7v-7.1H149.08q-12.36,0-12.36,8.13a7.3,7.3,0,0,0,3.09,6.18q3.09,2.29,8.59,2.29A18.48,18.48,0,0,0,158,146.06Z"/><path class="cls-3" d="M192,47.27H113.81A16.43,16.43,0,0,0,97.4,63.68l-.06,27.12h14.33l.23-27.12a1.93,1.93,0,0,1,1.91-1.91H192V190H113.81a1.93,1.93,0,0,1-1.91-1.91l-.23-23.85H97.38l0,23.85a16.43,16.43,0,0,0,16.41,16.41H192a14.5,14.5,0,0,0,14.5-14.5V61.77A14.5,14.5,0,0,0,192,47.27Z"/><circle class="cls-3" cx="213.69" cy="23.29" r="15.69"/><circle class="cls-3" cx="213.69" cy="23.29" r="15.69"/></svg>