<svg id="Слой_1" data-name="Слой 1" xmlns="http://www.w3.org/2000/svg" viewBox="0 0 256 256"><defs><style>.cls-1{fill:#00796b;}.cls-2{fill:#fff;}.cls-3{fill:#ffc107;}</style></defs><title>Монтажная область 1</title><rect class="cls-1" x="-0.16" y="-0.12" width="256" height="256" rx="21.65"/><path class="cls-2" d="M113.4,97v65.45H98.13v-8.33a22,22,0,0,1-8.51,6.8,29.61,29.61,0,0,1-11.89,2.39q-13.11,0-20.65-7.29t-7.54-21.64V97H64.86v35.3q0,8.82,4,13.18t11.34,4.35q8.2,0,13-5.09t4.84-14.65V97Z"/><path class="cls-2" d="M177,103.15q7.67,6.93,7.66,20.9v38.36H170.15v-8a17.82,17.82,0,0,1-8,6.55,31.39,31.39,0,0,1-12.56,2.27,30.88,30.88,0,0,1-12.87-2.51,19.92,19.92,0,0,1-8.52-7,17.73,17.73,0,0,1-3-10.11,17.33,17.33,0,0,1,6.56-14.16q6.56-5.32,20.65-5.33h16.91v-1q0-6.85-4.1-10.54T153,109a35.36,35.36,0,0,0-10.85,1.72,26.76,26.76,0,0,0-9,4.78l-6-11.15a37.11,37.11,0,0,1,12.38-6,55.05,55.05,0,0,1,15.32-2.08Q169.29,96.23,177,103.15Zm-14,46.33a14.29,14.29,0,0,0,6.31-7.54v-7.6H153.48q-13.23,0-13.24,8.71a7.83,7.83,0,0,0,3.31,6.62c2.21,1.63,5.27,2.45,9.2,2.45A19.76,19.76,0,0,0,163,149.48Z"/><path class="cls-3" d="M199.47,43.72H115.72A17.59,17.59,0,0,0,98.15,61.29l-.07,29h15.35l.25-29a2.06,2.06,0,0,1,2-2h83.75V196.52H115.72a2.06,2.06,0,0,1-2-2l-.25-25.54H98.13l0,25.54a17.59,17.59,0,0,0,17.57,17.57h83.75A15.53,15.53,0,0,0,215,196.52V59.25A15.53,15.53,0,0,0,199.47,43.72Z"/></svg>